<svg xmlns="http://www.w3.org/2000/svg" width="125" height="100" fill="none"><path fill="#FFE17F" d="M0 0h125v100H0z"/><g fill="#000" clip-path="url(#a)"><path d="m85.7 50.4-6.5-8.2c-.3-.4-.7-.6-1.2-.6h-8.3v-5.1c0-.8-.7-1.5-1.5-1.5H40.5c-.8 0-1.5.7-1.5 1.5s.7 1.5 1.5 1.5h26.2v21.7H54.8a4.7 4.7 0 0 0-4.5-3.3 4.9 4.9 0 0 0-4.8 4.8c0 2.6 2.2 4.8 4.8 4.8 2.1 0 3.9-1.4 4.5-3.3h13.4c.8 0 1.5-.7 1.5-1.5V44.6h7.6l5.7 7.3v7.9h-2.2a4.7 4.7 0 0 0-4.5-3.3 4.9 4.9 0 0 0-4.8 4.8c0 2.6 2.1 4.8 4.8 4.8 2.1 0 3.9-1.4 4.5-3.3h3.7c.8 0 1.5-.7 1.5-1.5v-9.9c0-.4-.1-.7-.3-1ZM50.3 63c-1 0-1.8-.8-1.8-1.8s.8-1.8 1.8-1.8 1.8.8 1.8 1.8-.9 1.8-1.8 1.8Zm26.1 0c-1 0-1.8-.8-1.8-1.8s.8-1.8 1.8-1.8 1.8.8 1.8 1.8-.9 1.8-1.8 1.8Z"/><path d="M58.4 44.6c.8 0 1.5-.7 1.5-1.5s-.7-1.5-1.5-1.5H43.8c-.8 0-1.5.7-1.5 1.5s.7 1.5 1.5 1.5h14.6ZM56.7 49.7c0-.8-.7-1.5-1.5-1.5H40.5c-.8 0-1.5.7-1.5 1.5s.7 1.5 1.5 1.5h14.7c.8 0 1.5-.7 1.5-1.5Z"/></g><defs><clipPath id="a"><path fill="#fff" d="M39 35h47v31H39z"/></clipPath></defs></svg>