<svg xmlns="http://www.w3.org/2000/svg" width="40" height="40" fill="none"><circle cx="20" cy="20" r="20" fill="#fff" fill-opacity=".3"/><g clip-path="url(#a)"><path fill="#444" d="M27.667 16.675a1.858 1.858 0 0 0-.51-.847 2.033 2.033 0 0 0-.893-.495c-1.252-.33-6.268-.33-6.268-.33a51.098 51.098 0 0 0-6.26.314c-.334.092-.64.267-.892.506-.246.238-.425.53-.518.851A19.393 19.393 0 0 0 12 20.337c-.008 1.227.101 2.453.326 3.662.091.32.27.611.516.846.248.236.556.406.894.496 1.27.329 6.26.329 6.26.329 2.094.024 4.188-.08 6.268-.313.335-.087.642-.257.892-.495.244-.23.42-.523.51-.847.23-1.207.342-2.434.334-3.663a17.72 17.72 0 0 0-.333-3.678Zm-9.265 5.944v-4.564l4.173 2.282-4.173 2.282Z"/></g><defs><clipPath id="a"><path fill="#fff" d="M12 15h16v11H12z"/></clipPath></defs></svg>